HIERARCHY
ROOT Hips
{
	OFFSET 0.000000 71.427986 0.000000
	CHANNELS 6 Xposition Yposition Zposition Xrotation Yrotation Zrotation
	JOINT Pelvis
	{
		OFFSET 0.000000 0.000000 0.000000
		CHANNELS 3 Xrotation Yrotation Zrotation
		JOINT LeftUpLeg
		{
			OFFSET 6.797100 -2.508499 -1.318700
			CHANNELS 3 Xrotation Yrotation Zrotation
			JOINT LeftLeg
			{
				OFFSET 0.069008 -29.241863 0.690200
				CHANNELS 3 Xrotation Yrotation Zrotation
				JOINT LeftFoot
				{
					OFFSET -0.069008 -29.568123 -0.266800
					CHANNELS 3 Xrotation Yrotation Zrotation
					JOINT LeftToeBase
					{
						OFFSET 3.145500 -8.631000 16.059900
						CHANNELS 3 Xrotation Yrotation Zrotation
						End Site
						{
							OFFSET 0.000000 18.501587 0.000000
						}
					}
				}
			}
			JOINT Left_ShortSleeve
			{
				OFFSET 0.265923 -10.480953 1.153800
				CHANNELS 3 Xrotation Yrotation Zrotation
				End Site
				{
					OFFSET 1.725763 19.823879 0.000000
				}
			}
		}
		JOINT RightUpLeg
		{
			OFFSET -6.797100 -2.508499 -1.318700
			CHANNELS 3 Xrotation Yrotation Zrotation
			JOINT RightLeg
			{
				OFFSET -0.082453 -29.241932 0.688000
				CHANNELS 3 Xrotation Yrotation Zrotation
				JOINT RightFoot
				{
					OFFSET 0.082453 -29.568058 -0.264600
					CHANNELS 3 Xrotation Yrotation Zrotation
					JOINT RightToeBase
					{
						OFFSET -3.115300 -8.682800 16.113400
						CHANNELS 3 Xrotation Yrotation Zrotation
						End Site
						{
							OFFSET 0.000000 18.567114 0.000000
						}
					}
				}
			}
			JOINT Right_ShortSleeve
			{
				OFFSET -0.265923 -10.480953 1.153800
				CHANNELS 3 Xrotation Yrotation Zrotation
				End Site
				{
					OFFSET -1.725766 19.823910 0.000000
				}
			}
		}
	}
	JOINT Spine
	{
		OFFSET 0.000000 13.368103 0.470500
		CHANNELS 3 Xrotation Yrotation Zrotation
		JOINT Spine1
		{
			OFFSET 0.147000 13.837402 0.538800
			CHANNELS 3 Xrotation Yrotation Zrotation
			JOINT Spine2
			{
				OFFSET 0.168000 16.242897 -1.435500
				CHANNELS 3 Xrotation Yrotation Zrotation
				JOINT Neck
				{
					OFFSET 0.217200 18.631500 -1.679100
					CHANNELS 3 Xrotation Yrotation Zrotation
					JOINT Head
					{
						OFFSET 0.000000 6.599396 1.385900
						CHANNELS 3 Xrotation Yrotation Zrotation
						JOINT Hat
						{
							OFFSET -0.532200 27.220596 -10.096100
							CHANNELS 3 Xrotation Yrotation Zrotation
							End Site
							{
								OFFSET 0.000000 22.029861 0.000000
							}
						}
						JOINT HairD
						{
							OFFSET -10.777400 17.437393 -1.325900
							CHANNELS 3 Xrotation Yrotation Zrotation
							JOINT HairD1
							{
								OFFSET -3.290299 -11.051193 1.062200
								CHANNELS 3 Xrotation Yrotation Zrotation
								End Site
								{
									OFFSET 0.000000 11.579437 0.000000
								}
							}
						}
						JOINT HairB
						{
							OFFSET -10.777400 17.437393 1.467900
							CHANNELS 3 Xrotation Yrotation Zrotation
							JOINT HairB1
							{
								OFFSET -1.561200 -12.956299 3.590200
								CHANNELS 3 Xrotation Yrotation Zrotation
								End Site
								{
									OFFSET 0.000000 13.534866 0.000000
								}
							}
						}
						JOINT HairA
						{
							OFFSET 9.713100 17.437393 1.467900
							CHANNELS 3 Xrotation Yrotation Zrotation
							JOINT HairA1
							{
								OFFSET 1.561200 -12.956299 3.590200
								CHANNELS 3 Xrotation Yrotation Zrotation
								End Site
								{
									OFFSET 0.000000 13.534866 0.000000
								}
							}
						}
						JOINT HairC
						{
							OFFSET 9.713100 17.437393 -1.325900
							CHANNELS 3 Xrotation Yrotation Zrotation
							JOINT HairC1
							{
								OFFSET 3.290300 -11.051193 1.062200
								CHANNELS 3 Xrotation Yrotation Zrotation
								End Site
								{
									OFFSET 0.000000 11.579437 0.000000
								}
							}
						}
					}
				}
				JOINT LeftShoulder
				{
					OFFSET 5.101800 15.108002 -2.763700
					CHANNELS 3 Xrotation Yrotation Zrotation
					JOINT LeftArm
					{
						OFFSET 9.825497 2.506317 -1.597400
						CHANNELS 3 Xrotation Yrotation Zrotation
						JOINT LeftForeArm
						{
							OFFSET 21.966244 0.000000 0.000000
							CHANNELS 3 Xrotation Yrotation Zrotation
							JOINT LeftHand
							{
								OFFSET 33.879036 0.000000 0.000000
								CHANNELS 3 Xrotation Yrotation Zrotation
								JOINT LeftHandThumb1
								{
									OFFSET 6.715286 -2.359680 3.363841
									CHANNELS 3 Xrotation Yrotation Zrotation
									JOINT LeftHandThumb2
									{
										OFFSET 2.507072 -1.447464 1.447461
										CHANNELS 3 Xrotation Yrotation Zrotation
										JOINT LeftHandThumb3
										{
											OFFSET 2.898338 -1.673355 1.673357
											CHANNELS 3 Xrotation Yrotation Zrotation
											End Site
											{
												OFFSET -0.295959 3.727692 -0.131651
											}
										}
									}
								}
								JOINT LeftHandIndex1
								{
									OFFSET 14.190811 -0.254547 3.840278
									CHANNELS 3 Xrotation Yrotation Zrotation
									JOINT LeftHandIndex2
									{
										OFFSET 3.551727 0.000000 -0.000000
										CHANNELS 3 Xrotation Yrotation Zrotation
										JOINT LeftHandIndex3
										{
											OFFSET 2.894196 0.000000 0.000000
											CHANNELS 3 Xrotation Yrotation Zrotation
											End Site
											{
												OFFSET -1.000603 2.690872 0.366626
											}
										}
									}
								}
								JOINT LeftHandMiddle1
								{
									OFFSET 13.776489 0.000000 0.000000
									CHANNELS 3 Xrotation Yrotation Zrotation
									JOINT LeftHandMiddle2
									{
										OFFSET 3.438232 0.000000 0.000000
										CHANNELS 3 Xrotation Yrotation Zrotation
										JOINT LeftHandMiddle3
										{
											OFFSET 3.691551 0.000000 0.000000
											CHANNELS 3 Xrotation Yrotation Zrotation
											End Site
											{
												OFFSET -1.082298 3.499527 0.457670
											}
										}
									}
								}
								JOINT LeftHandRing1
								{
									OFFSET 13.966164 -0.268127 -3.067488
									CHANNELS 3 Xrotation Yrotation Zrotation
									JOINT LeftHandRing2
									{
										OFFSET 3.162567 0.000000 0.000000
										CHANNELS 3 Xrotation Yrotation Zrotation
										JOINT LeftHandRing3
										{
											OFFSET 3.324348 0.000000 0.000000
											CHANNELS 3 Xrotation Yrotation Zrotation
											End Site
											{
												OFFSET -0.861900 3.184998 0.405154
											}
										}
									}
								}
								JOINT LeftHandPinky1
								{
									OFFSET 13.131393 -0.168503 -5.746925
									CHANNELS 3 Xrotation Yrotation Zrotation
									JOINT LeftHandPinky2
									{
										OFFSET 2.849182 0.000000 0.000000
										CHANNELS 3 Xrotation Yrotation Zrotation
										JOINT LeftHandPinky3
										{
											OFFSET 2.805038 0.000000 0.000000
											CHANNELS 3 Xrotation Yrotation Zrotation
											End Site
											{
												OFFSET -0.882500 2.642609 0.325652
											}
										}
									}
								}
							}
							JOINT Left_Sleeve
							{
								OFFSET 6.592125 -0.646545 0.805568
								CHANNELS 3 Xrotation Yrotation Zrotation
								End Site
								{
									OFFSET -0.000179 20.275787 -0.000000
								}
							}
						}
					}
				}
				JOINT RightShoulder
				{
					OFFSET -5.731700 15.108002 -2.763700
					CHANNELS 3 Xrotation Yrotation Zrotation
					JOINT RightArm
					{
						OFFSET -9.825497 2.506317 -1.597400
						CHANNELS 3 Xrotation Yrotation Zrotation
						JOINT RightForeArm
						{
							OFFSET -21.966242 0.000000 0.000000
							CHANNELS 3 Xrotation Yrotation Zrotation
							JOINT RightHand
							{
								OFFSET -33.879032 0.000000 0.000000
								CHANNELS 3 Xrotation Yrotation Zrotation
								JOINT RightHandThumb1
								{
									OFFSET -6.715286 -2.359680 3.363841
									CHANNELS 3 Xrotation Yrotation Zrotation
									JOINT RightHandThumb2
									{
										OFFSET -2.507072 -1.447464 1.447461
										CHANNELS 3 Xrotation Yrotation Zrotation
										JOINT RightHandThumb3
										{
											OFFSET -2.898338 -1.673355 1.673357
											CHANNELS 3 Xrotation Yrotation Zrotation
											End Site
											{
												OFFSET 0.295959 3.727692 -0.131651
											}
										}
									}
								}
								JOINT RightHandIndex1
								{
									OFFSET -14.190811 -0.254547 3.840278
									CHANNELS 3 Xrotation Yrotation Zrotation
									JOINT RightHandIndex2
									{
										OFFSET -3.551727 0.000000 -0.000000
										CHANNELS 3 Xrotation Yrotation Zrotation
										JOINT RightHandIndex3
										{
											OFFSET -2.894196 0.000000 0.000000
											CHANNELS 3 Xrotation Yrotation Zrotation
											End Site
											{
												OFFSET 1.000603 2.690872 0.366626
											}
										}
									}
								}
								JOINT RightHandMiddle1
								{
									OFFSET -13.776489 0.000000 0.000000
									CHANNELS 3 Xrotation Yrotation Zrotation
									JOINT RightHandMiddle2
									{
										OFFSET -3.438232 0.000000 0.000000
										CHANNELS 3 Xrotation Yrotation Zrotation
										JOINT RightHandMiddle3
										{
											OFFSET -3.691551 0.000000 0.000000
											CHANNELS 3 Xrotation Yrotation Zrotation
											End Site
											{
												OFFSET 1.082298 3.499527 0.457670
											}
										}
									}
								}
								JOINT RightHandRing1
								{
									OFFSET -13.966164 -0.268127 -3.067488
									CHANNELS 3 Xrotation Yrotation Zrotation
									JOINT RightHandRing2
									{
										OFFSET -3.162567 0.000000 0.000000
										CHANNELS 3 Xrotation Yrotation Zrotation
										JOINT RightHandRing3
										{
											OFFSET -3.324348 0.000000 0.000000
											CHANNELS 3 Xrotation Yrotation Zrotation
											End Site
											{
												OFFSET 0.861900 3.184998 0.405154
											}
										}
									}
								}
								JOINT RightHandPinky1
								{
									OFFSET -13.131393 -0.168503 -5.746925
									CHANNELS 3 Xrotation Yrotation Zrotation
									JOINT RightHandPinky2
									{
										OFFSET -2.849182 0.000000 0.000000
										CHANNELS 3 Xrotation Yrotation Zrotation
										JOINT RightHandPinky3
										{
											OFFSET -2.805038 0.000000 0.000000
											CHANNELS 3 Xrotation Yrotation Zrotation
											End Site
											{
												OFFSET 0.882500 2.642609 0.325652
											}
										}
									}
								}
							}
							JOINT Right_Sleeve
							{
								OFFSET -6.592125 -0.646545 0.805568
								CHANNELS 3 Xrotation Yrotation Zrotation
								End Site
								{
									OFFSET 0.000179 20.275787 -0.000000
								}
							}
						}
					}
				}
				JOINT Bind_Right_JacketString
				{
					OFFSET -3.534800 11.969597 7.200700
					CHANNELS 3 Xrotation Yrotation Zrotation
					JOINT Bind_Right_JacketString1
					{
						OFFSET -0.319900 -6.102600 2.794100
						CHANNELS 3 Xrotation Yrotation Zrotation
						End Site
						{
							OFFSET 0.000000 6.719452 0.000000
						}
					}
				}
				JOINT Bind_Left_JacketString
				{
					OFFSET 2.904800 11.969597 7.200700
					CHANNELS 3 Xrotation Yrotation Zrotation
					JOINT Bind_Left_JacketString1
					{
						OFFSET 0.364800 -5.904503 3.186800
						CHANNELS 3 Xrotation Yrotation Zrotation
						End Site
						{
							OFFSET 0.000000 6.719513 0.000000
						}
					}
				}
				JOINT HairE
				{
					OFFSET 5.915200 17.612701 -11.592200
					CHANNELS 3 Xrotation Yrotation Zrotation
					JOINT HairE1
					{
						OFFSET 0.289200 -7.171898 -1.284500
						CHANNELS 3 Xrotation Yrotation Zrotation
						End Site
						{
							OFFSET 0.000000 7.291756 0.000000
						}
					}
				}
				JOINT HairF
				{
					OFFSET -0.864800 17.612701 -11.592200
					CHANNELS 3 Xrotation Yrotation Zrotation
					JOINT HairF1
					{
						OFFSET 0.000000 -14.087097 -2.127501
						CHANNELS 3 Xrotation Yrotation Zrotation
						End Site
						{
							OFFSET 0.000000 14.246841 0.000000
						}
					}
				}
				JOINT HairG
				{
					OFFSET -8.087700 17.612701 -11.592200
					CHANNELS 3 Xrotation Yrotation Zrotation
					JOINT HairG1
					{
						OFFSET -0.293600 -6.081398 -0.910100
						CHANNELS 3 Xrotation Yrotation Zrotation
						End Site
						{
							OFFSET 0.000000 6.156120 0.000000
						}
					}
				}
			}
		}
	}
	JOINT Pouch
	{
		OFFSET 0.000000 4.394501 10.847300
		CHANNELS 3 Xrotation Yrotation Zrotation
		End Site
		{
			OFFSET 0.000000 21.880577 0.000000
		}
	}
	JOINT Bag
	{
		OFFSET -13.229000 4.813004 -0.593300
		CHANNELS 3 Xrotation Yrotation Zrotation
		End Site
		{
			OFFSET 0.000000 21.880577 0.000000
		}
	}
	JOINT OccupyGuyFacialAnim_Joint
	{
		OFFSET 1.000000 -70.206398 -1.655000
		CHANNELS 3 Xrotation Yrotation Zrotation
		End Site
		{
			OFFSET 0.000000 21.880577 0.000000
		}
	}
}
MOTION
Frames: 4
Frame Time: 0.033333
-0.184150 70.915344 1.292433 -3.753504 -5.225519 -3.479878 0.000000 -0.000000 0.000000 -8.970899 15.122061 9.858265 13.232411 1.945524 4.203627 -1.488116 0.721106 -7.483831 0.000000 0.000000 -0.000000 -0.000001 0.000001 0.000000 4.000478 -10.250717 4.217747 5.868340 -9.798186 -3.276775 -5.584434 -1.684053 3.132155 -0.000000 0.000000 -0.000000 -0.000000 0.000002 -0.000000 3.304424 1.533829 2.452519 1.151890 0.339457 1.552798 1.126015 0.361543 1.555886 5.626310 -0.078963 0.454683 -7.563346 1.375724 -0.080566 -0.000000 0.000000 -0.000000 -0.000000 0.000000 -0.000000 -0.000000 0.000000 -0.000000 -0.000000 0.000000 -0.000000 -0.000000 0.000000 -0.000000 -0.000000 0.000000 -0.000000 -0.000000 0.000000 -0.000000 -0.000000 0.000000 -0.000000 -0.000000 0.000000 -0.000000 1.049449 -17.442075 -12.319429 3.916256 -19.989256 -69.765246 -0.000003 -1.459357 0.000003 -33.230393 -1.364830 -6.186653 -0.663005 2.160311 4.832534 11.853572 25.421611 17.058317 -0.000000 -0.000000 -0.000001 0.019867 -0.969578 -7.593510 0.267872 1.752884 -17.375750 0.000001 0.000002 0.000002 -0.076312 2.665779 -15.696832 0.268781 1.755803 -17.405542 0.000001 0.000001 -0.000001 0.136907 3.641760 -21.133500 0.386619 2.094787 -20.911922 0.000000 0.000000 -0.000004 0.927721 5.555926 -27.128045 0.268798 1.755843 -17.405892 -0.000002 -0.000002 0.000001 0.000001 0.000000 -0.000000 1.203180 15.343658 14.705968 13.158857 27.555121 58.785164 0.000008 6.693739 0.000006 -20.179090 -0.514096 6.782800 -1.665254 -0.174470 -4.219020 12.710942 -29.825336 -16.130969 0.000001 -0.000001 0.000000 0.038553 1.262296 6.823717 0.213719 -1.396021 17.407033 -0.000004 0.000001 0.000002 -0.136225 -2.205100 14.998892 0.214438 -1.398345 17.436886 0.000003 0.000000 0.000006 0.030610 -3.075747 20.451014 0.308435 -1.668279 20.948523 0.000002 -0.000000 0.000002 0.748879 -4.885248 26.473759 0.214460 -1.398380 17.437249 0.000002 -0.000001 0.000000 -0.000002 0.000000 0.000000 0.000000 0.000000 -0.000000 0.000000 0.000000 0.000000 0.000000 0.000000 -0.000000 0.000000 0.000000 -0.000000 0.000000 0.000000 -0.000000 0.000000 0.000000 0.000000 0.000000 0.000000 -0.000000 0.000000 0.000000 -0.000000 0.000000 0.000000 -0.000000 0.000000 0.000000 0.000000 0.000000 -0.000000 0.000000 0.000000 -0.000000 0.000000 0.000000 -0.000000 0.000000 
-0.170954 70.904198 1.378514 -3.828422 -5.460251 -3.510378 0.000000 -0.000000 -0.000000 -8.940436 15.147299 9.911107 13.559442 2.157284 4.185824 -1.785873 0.726653 -7.454632 0.000000 -0.000000 0.000000 -0.000000 0.000001 -0.000000 3.985865 -10.298509 4.104215 6.180207 -9.533943 -3.155574 -5.786082 -1.671530 3.124583 0.000000 0.000000 -0.000000 -0.000000 -0.000001 -0.000000 3.287944 1.526270 2.473830 1.115983 0.325371 1.584851 1.090063 0.346723 1.587816 5.570020 -0.136902 0.527263 -7.507644 1.134176 -0.097560 0.000000 0.000000 0.000000 0.000000 0.000000 0.000000 0.000000 0.000000 -0.000000 0.000000 0.000000 -0.000000 -0.000000 0.000000 -0.000000 0.000000 0.000000 -0.000000 -0.000000 0.000000 -0.000000 0.000000 0.000000 0.000000 0.000000 0.000000 0.000000 1.054009 -17.385893 -12.285086 3.671213 -18.523401 -70.180426 0.000002 -1.592913 -0.000009 -34.135667 -1.829509 -6.077166 -0.652918 2.154782 5.027788 11.777479 25.266944 17.104817 -0.000000 -0.000001 -0.000003 0.246737 -0.873182 -6.743772 0.266343 1.747994 -17.325600 0.000002 -0.000001 0.000001 0.000955 2.948182 -15.783981 0.268140 1.753740 -17.384421 -0.000001 0.000000 0.000001 0.214916 3.847504 -21.247617 0.388465 2.099613 -20.962347 0.000001 -0.000000 -0.000003 0.985424 5.667785 -27.433535 0.271367 1.764022 -17.489645 0.000001 0.000000 0.000001 -0.000003 -0.000000 -0.000001 1.181306 15.205111 14.820563 12.812830 26.737703 58.928324 0.000003 6.606970 0.000006 -21.610819 -0.093564 6.688790 -1.864482 0.315553 -4.305674 12.503681 -29.436893 -16.183865 -0.000001 0.000003 0.000004 0.324543 0.537693 5.859061 0.214574 -1.398734 17.441945 0.000001 0.000001 0.000000 -0.078362 -2.510605 16.224278 0.219433 -1.414096 17.639749 -0.000002 -0.000000 -0.000001 0.010946 -3.076289 21.583732 0.314938 -1.685136 21.170480 0.000001 -0.000001 -0.000003 0.647859 -4.736999 27.997323 0.216181 -1.403853 17.507723 0.000002 0.000001 0.000004 -0.000002 0.000000 0.000000 -0.000000 0.000000 -0.000000 -0.000000 0.000000 -0.000000 -0.000000 0.000000 -0.000000 -0.000000 0.000000 -0.000000 -0.000000 0.000000 -0.000000 -0.000000 0.000000 -0.000000 -0.000000 0.000000 -0.000000 -0.000000 0.000000 -0.000000 -0.000000 0.000000 -0.000000 -0.000000 0.000000 -0.000000 0.000000 -0.000000 -0.000000 0.000000 -0.000000 -0.000000 0.000000 -0.000000 -0.000000 
-0.157366 70.896820 1.478808 -3.927835 -5.769506 -3.553862 -0.000000 -0.000000 0.000000 -8.895118 15.194121 10.002331 13.937206 2.416983 4.144306 -2.086287 0.732576 -7.467153 0.000000 -0.000000 -0.000000 0.000001 -0.000001 -0.000000 4.053653 -10.360752 3.980504 6.393383 -9.174364 -3.002396 -5.943289 -1.660971 3.091560 -0.000000 0.000000 -0.000000 -0.000000 0.000001 -0.000000 3.268276 1.506405 2.501196 1.076751 0.290007 1.623053 1.050761 0.310429 1.625530 5.482205 -0.240499 0.652213 -7.532228 0.670045 -0.067750 -0.000000 0.000000 0.000000 -0.000000 0.000000 0.000000 -0.000000 0.000000 -0.000000 -0.000000 0.000000 0.000000 -0.000000 -0.000000 0.000000 -0.000000 0.000000 0.000000 -0.000000 -0.000000 0.000000 -0.000000 0.000000 0.000000 -0.000000 0.000000 0.000000 1.060782 -17.372941 -12.241730 3.244270 -16.413192 -70.708215 -0.000004 -1.579058 0.000031 -35.299599 -2.576908 -5.681888 -0.639891 2.168984 5.106651 11.687342 25.082645 17.159908 0.000001 0.000001 -0.000002 0.537850 -0.897246 -4.602302 0.262645 1.736109 -17.204041 0.000003 0.000001 0.000004 0.069497 3.153326 -15.028363 0.266377 1.748114 -17.326809 0.000001 0.000001 0.000001 0.296678 4.060360 -21.364685 0.404729 2.141549 -21.401865 -0.000001 0.000000 -0.000004 1.054238 5.796887 -27.815308 0.275284 1.776403 -17.616473 0.000001 0.000000 0.000001 0.000001 0.000000 -0.000000 1.150633 14.958941 14.986330 11.878150 25.046925 59.245518 -0.000006 6.312887 -0.000012 -23.846951 0.710188 6.383257 -2.155585 1.049980 -4.496036 12.149387 -28.763764 -16.274124 -0.000000 0.000000 0.000004 0.669456 -0.367274 4.374242 0.210389 -1.385348 17.269684 0.000003 0.000000 -0.000001 -0.005447 -2.826873 17.454403 0.230629 -1.448830 18.088054 0.000002 0.000000 0.000001 -0.021044 -3.070728 23.073936 0.331564 -1.727441 21.728881 -0.000000 0.000000 0.000003 0.519161 -4.578251 29.861386 0.224259 -1.429209 17.834606 0.000001 0.000000 0.000002 -0.000002 -0.000000 0.000001 -0.000000 -0.000000 0.000000 -0.000000 -0.000000 0.000000 -0.000000 -0.000000 0.000000 -0.000000 -0.000000 0.000000 -0.000000 -0.000000 0.000000 -0.000000 -0.000000 0.000000 -0.000000 -0.000000 0.000000 -0.000000 -0.000000 0.000000 -0.000000 -0.000000 0.000000 -0.000000 -0.000000 0.000000 -0.000000 -0.000000 0.000000 -0.000000 -0.000000 0.000000 -0.000000 -0.000000 0.000000 
-0.141388 70.892853 1.593962 -4.059269 -6.166689 -3.607204 0.000000 -0.000000 0.000000 -8.819631 15.260116 10.122777 14.363321 2.746027 4.077503 -2.394082 0.739144 -7.518375 0.000000 0.000001 -0.000000 0.000001 -0.000001 -0.000000 4.193254 -10.422519 3.846503 6.531142 -8.725381 -2.839118 -6.065460 -1.650226 3.048314 -0.000000 -0.000000 0.000000 -0.000000 -0.000002 -0.000000 3.244479 1.476102 2.532707 1.033578 0.237135 1.666823 1.007515 0.256521 1.668498 5.358317 -0.412192 0.837279 -7.598805 -0.147433 0.051559 -0.000000 0.000000 0.000000 -0.000000 0.000000 0.000000 -0.000000 0.000000 0.000000 -0.000000 0.000000 0.000000 -0.000000 0.000000 0.000000 -0.000000 0.000000 0.000000 -0.000000 0.000000 0.000000 -0.000000 0.000000 0.000000 -0.000000 0.000000 0.000000 1.068160 -17.433885 -12.203122 2.839390 -14.155618 -71.152936 -0.000007 -1.478260 -0.000005 -36.532571 -3.461519 -5.018452 -0.619117 2.207300 5.103720 11.599218 24.901384 17.213760 0.000001 0.000001 -0.000004 0.863113 -0.989567 -1.614907 0.257050 1.717951 -17.018497 0.000001 0.000001 0.000002 0.119261 3.290638 -13.687612 0.263824 1.739916 -17.242987 0.000000 -0.000001 -0.000001 0.377468 4.268380 -21.510135 0.416903 2.172330 -21.725281 -0.000002 0.000000 -0.000002 1.128037 5.930144 -28.242680 0.279889 1.790830 -17.764402 0.000001 0.000000 0.000003 0.000002 0.000001 0.000000 1.122358 14.669259 15.146134 10.549248 22.776584 59.627469 -0.000002 5.926315 -0.000033 -26.059057 1.797728 5.691177 -2.507483 1.972106 -4.782698 11.669019 -27.836100 -16.393506 -0.000001 0.000000 0.000001 1.002964 -1.417171 2.566228 0.202099 -1.358429 16.923698 0.000001 0.000001 0.000002 0.079620 -3.141273 18.661515 0.246446 -1.496395 18.703737 -0.000002 0.000001 -0.000006 -0.072097 -3.046924 24.815165 0.355328 -1.785896 22.504092 0.000001 -0.000001 -0.000000 0.367424 -4.425487 31.937302 0.236987 -1.468170 18.338074 -0.000002 0.000001 0.000001 0.000001 -0.000000 -0.000000 0.000000 -0.000000 0.000000 0.000000 -0.000000 0.000000 0.000000 -0.000000 0.000000 0.000000 -0.000000 0.000000 0.000000 -0.000000 0.000000 0.000000 -0.000000 0.000000 0.000000 -0.000000 0.000000 0.000000 -0.000000 0.000000 0.000000 -0.000000 0.000000 0.000000 -0.000000 0.000000 0.000000 -0.000000 0.000000 0.000000 -0.000000 0.000000 0.000000 -0.000000 0.000000 
